name C:\Users\u0101727\Documents\MyRepositories\upper-imu-dc\Results\main_mocap_tracking\Case_6\FLX01_linearAccelerations.mot
datacolumns 4
datarows 94
range 2.01000000 2.94000000
endheader 
time	radius_imu_x	radius_imu_y	radius_imu_z	
          2.01000000	         -3.48906349	         -2.04636326	          8.35698422	
          2.02000000	         -3.49555217	         -2.12409937	          8.34077598	
          2.03000000	         -3.43772749	         -2.17144753	          8.33161506	
          2.04000000	         -3.32315078	         -2.20475358	          8.32301314	
          2.05000000	         -3.18180601	         -2.24400861	          8.30990036	
          2.06000000	         -3.06311824	         -2.30516117	          8.28687765	
          2.07000000	         -3.00778990	         -2.39521485	          8.24920971	
          2.08000000	         -3.03021876	         -2.51391909	          8.19538168	
          2.09000000	         -3.12354024	         -2.65466457	          8.12825328	
          2.10000000	         -3.26750571	         -2.80477935	          8.05541419	
          2.11000000	         -3.43625019	         -2.95022729	          7.98614721	
          2.12000000	         -3.61180164	         -3.08579461	          7.92415342	
          2.13000000	         -3.78974421	         -3.21873127	          7.86545295	
          2.14000000	         -3.96244269	         -3.35776050	          7.80573043	
          2.15000000	         -4.11371535	         -3.50389861	          7.74398908	
          2.16000000	         -4.23629392	         -3.65342374	          7.67918199	
          2.17000000	         -4.33533690	         -3.79969911	          7.61213655	
          2.18000000	         -4.41118717	         -3.93051374	          7.54904939	
          2.19000000	         -4.45044232	         -4.03283460	          7.49744354	
          2.20000000	         -4.44235521	         -4.10848303	          7.45854390	
          2.21000000	         -4.40237867	         -4.17806753	          7.42546483	
          2.22000000	         -4.36236682	         -4.26264384	          7.38950364	
          2.23000000	         -4.34069756	         -4.36531246	          7.34592830	
          2.24000000	         -4.33749563	         -4.47292767	          7.29290832	
          2.25000000	         -4.34110067	         -4.56736188	          7.23109919	
          2.26000000	         -4.33247093	         -4.63760524	          7.16283395	
          2.27000000	         -4.30121058	         -4.68878292	          7.08836957	
          2.28000000	         -4.26613499	         -4.74469357	          7.00163999	
          2.29000000	         -4.26541939	         -4.83388119	          6.89281797	
          2.30000000	         -4.32531454	         -4.96826883	          6.75676210	
          2.31000000	         -4.43848599	         -5.13457351	          6.59800806	
          2.32000000	         -4.57623197	         -5.30574430	          6.42679377	
          2.33000000	         -4.71289411	         -5.45766725	          6.25254152	
          2.34000000	         -4.83102544	         -5.57665437	          6.08058645	
          2.35000000	         -4.92002724	         -5.65781743	          5.91435356	
          2.36000000	         -4.96870924	         -5.70395093	          5.75587015	
          2.37000000	         -4.96157309	         -5.72519840	          5.60686252	
          2.38000000	         -4.88592385	         -5.73576535	          5.47056847	
          2.39000000	         -4.73813800	         -5.74690439	          5.35338326	
          2.40000000	         -4.51867375	         -5.76188603	          5.26421005	
          2.41000000	         -4.22825724	         -5.77869150	          5.21107779	
          2.42000000	         -3.87647730	         -5.79837483	          5.19677708	
          2.43000000	         -3.50293425	         -5.83072335	          5.21390964	
          2.44000000	         -3.18333356	         -5.89118656	          5.24443791	
          2.45000000	         -2.98146203	         -5.99052134	          5.27141368	
          2.46000000	         -2.90040822	         -6.12557950	          5.29153397	
          2.47000000	         -2.90026802	         -6.27811662	          5.31298738	
          2.48000000	         -2.93777031	         -6.42090715	          5.34593933	
          2.49000000	         -2.98107066	         -6.52899515	          5.39657441	
          2.50000000	         -3.02083667	         -6.59397028	          5.46301600	
          2.51000000	         -3.07539129	         -6.63010328	          5.53511096	
          2.52000000	         -3.16843173	         -6.66361680	          5.59991258	
          2.53000000	         -3.30226790	         -6.71532543	          5.64750746	
          2.54000000	         -3.45773365	         -6.79104649	          5.67248905	
          2.55000000	         -3.61129291	         -6.88264915	          5.67244781	
          2.56000000	         -3.74282070	         -6.97473961	          5.64680011	
          2.57000000	         -3.83577588	         -7.05438981	          5.59680372	
          2.58000000	         -3.88110841	         -7.12038509	          5.52528526	
          2.59000000	         -3.87665374	         -7.18406078	          5.43596226	
          2.60000000	         -3.82095288	         -7.25847160	          5.33415939	
          2.61000000	         -3.71517229	         -7.34523524	          5.22786438	
          2.62000000	         -3.57301393	         -7.43260474	          5.12591755	
          2.63000000	         -3.42340353	         -7.50639094	          5.03364562	
          2.64000000	         -3.29973772	         -7.55819874	          4.95141741	
          2.65000000	         -3.22347604	         -7.58628303	          4.87707116	
          2.66000000	         -3.19723111	         -7.59132703	          4.80972524	
          2.67000000	         -3.20636269	         -7.57508864	          4.75074803	
          2.68000000	         -3.22679284	         -7.54422509	          4.70112223	
          2.69000000	         -3.23829619	         -7.51365308	          4.65870366	
          2.70000000	         -3.23372296	         -7.50304809	          4.61840957	
          2.71000000	         -3.21695777	         -7.52772720	          4.57459838	
          2.72000000	         -3.19490390	         -7.59075414	          4.52406927	
          2.73000000	         -3.16921920	         -7.68179816	          4.46762756	
          2.74000000	         -3.13548415	         -7.78360770	          4.40868468	
          2.75000000	         -3.09061435	         -7.88189296	          4.35010695	
          2.76000000	         -3.03776287	         -7.97169004	          4.29146527	
          2.77000000	         -2.98508730	         -8.05720156	          4.22873613	
          2.78000000	         -2.94196086	         -8.14743407	          4.15723638	
          2.79000000	         -2.91355678	         -8.24911951	          4.07490327	
          2.80000000	         -2.89671498	         -8.35714811	          3.98406823	
          2.81000000	         -2.87957878	         -8.44912691	          3.89253813	
          2.82000000	         -2.84802938	         -8.49502713	          3.81073534	
          2.83000000	         -2.79740131	         -8.47922102	          3.74409022	
          2.84000000	         -2.73678101	         -8.41421353	          3.68868214	
          2.85000000	         -2.67813720	         -8.33187852	          3.63570452	
          2.86000000	         -2.62435165	         -8.26221797	          3.57871161	
          2.87000000	         -2.56890815	         -8.21959548	          3.51643035	
          2.88000000	         -2.50685915	         -8.20409778	          3.45037578	
          2.89000000	         -2.44036067	         -8.20921777	          3.38188824	
          2.90000000	         -2.37271835	         -8.22542519	          3.31144298	
          2.91000000	         -2.30327311	         -8.24076988	          3.23806684	
          2.92000000	         -2.23034324	         -8.24735776	          3.16105477	
          2.93000000	         -2.15642582	         -8.24904136	          3.07990964	
          2.94000000	         -2.08834849	         -8.26334923	          2.99544963	
